HIERARCHY
ROOT Hips
{
	OFFSET	0.00	0.00	0.00
	CHANNELS 6 Xposition Yposition Zposition Zrotation Xrotation Yrotation
	JOINT LeftUpLeg
	{
		OFFSET	 0.126116	-0.065224	 0.014019
		CHANNELS 3 Zrotation Xrotation Yrotation
		JOINT LeftLeg
		{
			OFFSET	 0.000000	 0.569914	 0.000000
			CHANNELS 3 Zrotation Xrotation Yrotation
			JOINT LeftFoot
			{
				OFFSET	 0.000000	 0.544423	 0.000000
				CHANNELS 3 Zrotation Xrotation Yrotation
				JOINT LeftToeBase
				{
					OFFSET	 0.000000	 0.207117	 0.000000
					CHANNELS 3 Zrotation Xrotation Yrotation
					End Site
					{
						OFFSET	 0.000000	 0.207117	 0.000000
					}
				}
			}
		}
	}
	JOINT RightUpLeg
	{
		OFFSET	-0.124023	-0.065224	 0.008373
		CHANNELS 3 Zrotation Xrotation Yrotation
		JOINT RightLeg
		{
			OFFSET	 0.000000	 0.570047	 0.000000
			CHANNELS 3 Zrotation Xrotation Yrotation
			JOINT RightFoot
			{
				OFFSET	 0.000000	 0.544354	 0.000000
				CHANNELS 3 Zrotation Xrotation Yrotation
				JOINT RightToeBase
				{
					OFFSET	 0.000000	 0.207540	 0.000000
					CHANNELS 3 Zrotation Xrotation Yrotation
					End Site
					{
						OFFSET	 0.000000	 0.207540	 0.000000
					}
				}
			}
		}
	}
	JOINT Spine
	{
		OFFSET	 0.000184	 0.117403	 0.007763
		CHANNELS 3 Zrotation Xrotation Yrotation
		JOINT Spine1
		{
			OFFSET	 0.000000	 0.137269	 0.000000
			CHANNELS 3 Zrotation Xrotation Yrotation
			JOINT Spine2
			{
				OFFSET	 0.000000	 0.156879	 0.000000
				CHANNELS 3 Zrotation Xrotation Yrotation
				JOINT LeftShoulder
				{
					OFFSET	 0.080501	 0.160143	 0.002496
					CHANNELS 3 Zrotation Xrotation Yrotation
					JOINT LeftArm
					{
						OFFSET	 0.000000	 0.164363	 0.000000
						CHANNELS 3 Zrotation Xrotation Yrotation
						JOINT LeftForeArm
						{
							OFFSET	 0.000000	 0.364576	 0.000000
							CHANNELS 3 Zrotation Xrotation Yrotation
							JOINT LeftHand
							{
								OFFSET	 0.000000	 0.360812	 0.000000
								CHANNELS 3 Zrotation Xrotation Yrotation
								JOINT LeftHandIndex1
								{
									OFFSET	 0.000000	 0.086006	 0.000000
									CHANNELS 3 Zrotation Xrotation Yrotation
									JOINT LeftHandIndex2
									{
										OFFSET	 0.000000	 0.047237	 0.000000
										CHANNELS 3 Zrotation Xrotation Yrotation
										JOINT LeftHandIndex3
										{
											OFFSET	-0.004284	 0.038165	 0.000551
											CHANNELS 3 Zrotation Xrotation Yrotation
											End Site
											{
												OFFSET	-0.004284	 0.038165	 0.000551
											}
										}
									}
								}
							}
						}
					}
				}
				JOINT Neck
				{
					OFFSET	 0.000000	 0.176489	 0.000000
					CHANNELS 3 Zrotation Xrotation Yrotation
					JOINT Head
					{
						OFFSET	 0.000000	 0.077941	 0.001747
						CHANNELS 3 Zrotation Xrotation Yrotation
						End Site
						{
							OFFSET	 0.000000	 0.077941	 0.001747
						}
					}
				}
				JOINT RightShoulder
				{
					OFFSET	-0.080363	 0.159706	-0.000306
					CHANNELS 3 Zrotation Xrotation Yrotation
					JOINT RightArm
					{
						OFFSET	 0.000000	 0.164196	 0.000000
						CHANNELS 3 Zrotation Xrotation Yrotation
						JOINT RightForeArm
						{
							OFFSET	 0.000000	 0.365611	 0.000000
							CHANNELS 3 Zrotation Xrotation Yrotation
							JOINT RightHand
							{
								OFFSET	 0.000000	 0.360648	 0.000000
								CHANNELS 3 Zrotation Xrotation Yrotation
								JOINT RightHandIndex1
								{
									OFFSET	 0.000000	 0.069977	 0.000000
									CHANNELS 3 Zrotation Xrotation Yrotation
									JOINT RightHandIndex2
									{
										OFFSET	 0.000000	 0.052305	 0.000000
										CHANNELS 3 Zrotation Xrotation Yrotation
										JOINT RightHandIndex3
										{
											OFFSET	 0.009002	 0.042196	 0.000782
											CHANNELS 3 Zrotation Xrotation Yrotation
											End Site
											{
												OFFSET	 0.009002	 0.042196	 0.000782
											}
										}
									}
								}
							}
						}
					}
				}
			}
		}
	}
}
MOTION
Frames:    5
Frame Time: 0.03333334
 0.002364	 1.271176	 0.063404	-0.399509	 0.004127	-179.992700	 177.201000	 0.948169	 17.771460	 2.482380	-11.554780	-0.006254	-2.154541	 71.387080	 4.192753	 1.292262	 28.425850	-2.713146	-177.508100	 1.994755	-17.841800	-2.813753	-13.429150	-0.065087	 2.283066	 72.123100	-4.127209	-1.288183	 28.361890	 2.710176	-0.149572	 2.486098	 8.518894	-1.909468	 4.675851	 4.508037	 1.692817	-5.896422	-12.925190	-101.478000	 1.740684	 90.353390	-3.337580	 59.931950	 5.225619	 13.120640	 12.548280	-9.987556	 20.268610	-7.201258	 27.842810	-6.580301	 5.266122	 0.000000	 0.000000	 0.000000	 0.000000	 0.000000	 0.000000	 0.000000	 0.089846	-3.783161	 0.005928	 0.018586	 0.667564	-3.189569	 101.796200	-0.213317	-89.955440	-56.418300	 4.135608	 64.128400	-52.171620	 44.166980	 30.152040	 26.047780	-47.573390	-46.580530	 15.208500	 5.323790	 0.000000	 0.000000	 0.000000	 0.000000	 0.000000	 0.000000	 0.000000
 0.002330	 1.271159	 0.063403	-0.386738	 0.004120	-179.993000	 177.201800	 0.967026	 17.772360	 2.492119	-11.598840	-0.004294	-2.157724	 71.409560	 4.191900	 1.292262	 28.425850	-2.713146	-177.498600	 1.990972	-17.840910	-2.811807	-13.420220	-0.064634	 2.286126	 72.118770	-4.130580	-1.288183	 28.361890	 2.710176	-0.122129	 2.629470	 8.620648	-1.944046	 4.178064	 4.525976	 1.760679	-5.255229	-13.054740	-101.478000	 1.740680	 90.353390	-2.823481	 59.687920	 4.709207	 13.433300	 12.581810	-10.445360	 19.856260	-7.350818	 28.120330	-6.580301	 5.266122	 0.000000	 0.000000	 0.000000	 0.000000	 0.000000	 0.000000	 0.000000	 0.089846	-3.783161	 0.005928	 0.020708	 0.734833	-3.228317	 101.796200	-0.213308	-89.955460	-61.037270	 1.444543	 65.575400	-44.221080	 39.916850	 24.221220	 21.798290	-44.904800	-52.949540	 15.208500	 5.323790	 0.000000	 0.000000	 0.000000	 0.000000	 0.000000	 0.000000	 0.000000
 0.002297	 1.271146	 0.063402	-0.374167	 0.004120	-179.993200	 177.203600	 0.983626	 17.773410	 2.500709	-11.637710	-0.002572	-2.159615	 71.429370	 4.190238	 1.292262	 28.425850	-2.713146	-177.490100	 1.985689	-17.840180	-2.809131	-13.407900	-0.064013	 2.287998	 72.112710	-4.133090	-1.288183	 28.361890	 2.710176	-0.097946	 2.755592	 8.681860	-1.968631	 3.740492	 4.528098	 1.814968	-4.693282	-13.128000	-101.478000	 1.740679	 90.353370	-2.385491	 59.481910	 4.267838	 13.712920	 12.619870	-10.850210	 19.472020	-7.533177	 28.283250	-6.580301	 5.266122	 0.000000	 0.000000	 0.000000	 0.000000	 0.000000	 0.000000	 0.000000	 0.089846	-3.783161	 0.005928	 0.022603	 0.796266	-3.251966	 101.796200	-0.213317	-89.955440	-65.130390	-0.861688	 66.306180	-37.711760	 35.443600	 19.642510	 17.681000	-42.250850	-58.393170	 15.208500	 5.323790	 0.000000	 0.000000	 0.000000	 0.000000	 0.000000	 0.000000	 0.000000
 0.002257	 1.271135	 0.063402	-0.358845	 0.004337	-179.993500	 177.206900	 1.002038	 17.774610	 2.510347	-11.681300	-0.000620	-2.161244	 71.451560	 4.187941	 1.292262	 28.425850	-2.713146	-177.480600	 1.977685	-17.838970	-2.805166	-13.389670	-0.063095	 2.290765	 72.103660	-4.137043	-1.288183	 28.361890	 2.710176	-0.071118	 2.896876	 8.719424	-1.989644	 3.250805	 4.515853	 1.869519	-4.065539	-13.165460	-101.478000	 1.740667	 90.353380	-1.909006	 59.265810	 3.787372	 14.028430	 12.675950	-11.299330	 19.011140	-7.795882	 28.378780	-6.580301	 5.266122	 0.000000	 0.000000	 0.000000	 0.000000	 0.000000	 0.000000	 0.000000	 0.089846	-3.783161	 0.005928	 0.024742	 0.867641	-3.266844	 101.796200	-0.213310	-89.955440	-69.667830	-3.254871	 66.558820	-31.137170	 29.829250	 15.367120	 12.862090	-39.020500	-64.070010	 15.208500	 5.323790	 0.000000	 0.000000	 0.000000	 0.000000	 0.000000	 0.000000	 0.000000
 0.002248	 1.271133	 0.063402	-0.355175	 0.004412	-179.993600	 177.207800	 1.006145	 17.774860	 2.512511	-11.691100	-0.000179	-2.161543	 71.456560	 4.187371	 1.292262	 28.425850	-2.713146	-177.478400	 1.975543	-17.838660	-2.804112	-13.384820	-0.062852	 2.291484	 72.101230	-4.138109	-1.288183	 28.361890	 2.710176	-0.065650	 2.926567	 8.715365	-1.991325	 3.147874	 4.507338	 1.878342	-3.934185	-13.155690	-101.478000	 1.740690	 90.353400	-1.819444	 59.157600	 3.668759	 14.264480	 12.661580	-11.668110	 19.017810	-7.988718	 28.321580	-6.580301	 5.266122	 0.000000	 0.000000	 0.000000	 0.000000	 0.000000	 0.000000	 0.000000	 0.089846	-3.783161	 0.005928	 0.025190	 0.883729	-3.265474	 101.796200	-0.213318	-89.955440	-73.512440	-4.960595	 66.244160	-26.023110	 24.586720	 12.360480	 8.072942	-36.167490	-68.753710	 15.208500	 5.323790	 0.000000	 0.000000	 0.000000	 0.000000	 0.000000	 0.000000	 0.000000
